<?xml version="1.0" encoding="UTF-8"?>
<svg width="512pt" height="512pt" version="1.1" viewBox="0 0 512 512" xmlns="http://www.w3.org/2000/svg">
    <path fill="white" transform="rotate(-180 256 256)"
        d="m205.31 262.66-0.51172 0.51172c-11.777 11.777-28.16 36.863-40.449 59.391l-73.215-8.1914c-3.5859-0.51172-7.6797 1.0234-11.266 4.0977l-10.754 8.1914 74.754 40.961 0.51172 0.51172 40.961 74.754 8.1914-10.754c2.5586-3.5859 4.0977-7.6797 4.0977-11.266l-8.1914-73.215c22.527-12.289 48.129-28.672 59.391-40.449l46.078-46.078 105.47 171.52 10.754-16.895c3.5859-6.1445 4.6094-13.312 2.5586-19.969l-64-189.44 50.688-50.688c23.551-23.551 51.711-71.168 39.426-83.457-12.289-12.289-59.902 15.359-83.457 39.426l-50.688 50.688-188.93-64c-6.6562-2.0469-13.824-1.5352-19.969 2.5586l-16.895 10.754 171.01 104.96z" />
</svg>
