<svg xmlns="http://www.w3.org/2000/svg" version="1.1" xmlns:xlink="http://www.w3.org/1999/xlink" xmlns:svgjs="http://svgjs.dev/svgjs" viewBox="0 0 800 800"><defs><linearGradient x1="50%" y1="0%" x2="50%" y2="100%" id="ffflurry-grad" gradientTransform="rotate(270)"><stop stop-color="#00091f" stop-opacity="1" offset="0%"></stop><stop stop-color="#e9e8fc" stop-opacity="1" offset="45%"></stop><stop stop-color="#07062c" stop-opacity="1" offset="100%"></stop></linearGradient></defs><rect width="100%" height="100%" fill="#00091f"></rect><g fill="url(#ffflurry-grad)"><rect width="420" height="3" x="411" y="414.5" rx="1.5" transform="rotate(50, 621, 416)" opacity="0.59"></rect><rect width="772" height="3" x="-325" y="301.5" rx="1.5" transform="rotate(50, 61, 303)" opacity="0.58"></rect><rect width="676" height="3" x="-9" y="604.5" rx="1.5" transform="rotate(50, 329, 606)" opacity="0.59"></rect><rect width="127" height="3" x="427.5" y="442.5" rx="1.5" transform="rotate(50, 491, 444)" opacity="0.64"></rect><rect width="725" height="3" x="-317.5" y="56.5" rx="1.5" transform="rotate(50, 45, 58)" opacity="0.79"></rect><rect width="254" height="3" x="347" y="175.5" rx="1.5" transform="rotate(50, 474, 177)" opacity="0.11"></rect><rect width="177" height="3" x="110.5" y="724.5" rx="1.5" transform="rotate(50, 199, 726)" opacity="0.95"></rect><rect width="478" height="3" x="202" y="733.5" rx="1.5" transform="rotate(50, 441, 735)" opacity="0.97"></rect><rect width="1074" height="3" x="-474" y="697.5" rx="1.5" transform="rotate(50, 63, 699)" opacity="0.85"></rect><rect width="529" height="3" x="351.5" y="292.5" rx="1.5" transform="rotate(50, 616, 294)" opacity="0.99"></rect><rect width="615" height="3" x="-138.5" y="52.5" rx="1.5" transform="rotate(50, 169, 54)" opacity="0.43"></rect><rect width="103" height="3" x="108.5" y="449.5" rx="1.5" transform="rotate(50, 160, 451)" opacity="0.72"></rect><rect width="871" height="3" x="7.5" y="563.5" rx="1.5" transform="rotate(50, 443, 565)" opacity="0.33"></rect><rect width="86" height="3" x="256" y="103.5" rx="1.5" transform="rotate(50, 299, 105)" opacity="0.91"></rect><rect width="149" height="3" x="246.5" y="730.5" rx="1.5" transform="rotate(50, 321, 732)" opacity="0.45"></rect><rect width="251" height="3" x="-59.5" y="159.5" rx="1.5" transform="rotate(50, 66, 161)" opacity="0.36"></rect><rect width="397" height="3" x="263.5" y="48.5" rx="1.5" transform="rotate(50, 462, 50)" opacity="0.99"></rect><rect width="240" height="3" x="72" y="345.5" rx="1.5" transform="rotate(50, 192, 347)" opacity="0.88"></rect><rect width="656" height="3" x="-278" y="485.5" rx="1.5" transform="rotate(50, 50, 487)" opacity="0.83"></rect><rect width="238" height="3" x="543" y="720.5" rx="1.5" transform="rotate(50, 662, 722)" opacity="0.63"></rect><rect width="247" height="3" x="584.5" y="67.5" rx="1.5" transform="rotate(50, 708, 69)" opacity="0.91"></rect><rect width="741" height="3" x="362.5" y="601.5" rx="1.5" transform="rotate(50, 733, 603)" opacity="0.82"></rect><rect width="164" height="3" x="230" y="453.5" rx="1.5" transform="rotate(50, 312, 455)" opacity="0.26"></rect><rect width="589" height="3" x="464.5" y="731.5" rx="1.5" transform="rotate(50, 759, 733)" opacity="0.80"></rect><rect width="214" height="3" x="612" y="494.5" rx="1.5" transform="rotate(50, 719, 496)" opacity="0.97"></rect><rect width="435" height="3" x="-44.5" y="202.5" rx="1.5" transform="rotate(50, 173, 204)" opacity="0.34"></rect><rect width="790" height="3" x="-218" y="578.5" rx="1.5" transform="rotate(50, 177, 580)" opacity="0.54"></rect><rect width="419" height="3" x="448.5" y="173.5" rx="1.5" transform="rotate(50, 658, 175)" opacity="0.29"></rect><rect width="154" height="3" x="674" y="338.5" rx="1.5" transform="rotate(50, 751, 340)" opacity="0.99"></rect><rect width="566" height="3" x="268" y="700.5" rx="1.5" transform="rotate(50, 551, 702)" opacity="0.42"></rect><rect width="634" height="3" x="125" y="326.5" rx="1.5" transform="rotate(50, 442, 328)" opacity="0.77"></rect><rect width="557" height="3" x="26.5" y="272.5" rx="1.5" transform="rotate(50, 305, 274)" opacity="0.88"></rect><rect width="233" height="3" x="466.5" y="556.5" rx="1.5" transform="rotate(50, 583, 558)" opacity="0.86"></rect></g></svg>